<?xml version="1.0" standalone="no"?>
<!DOCTYPE svg PUBLIC "-//W3C//DTD SVG 1.1//EN" "http://www.w3.org/Graphics/SVG/1.1/DTD/svg11.dtd" >
<svg xmlns="http://www.w3.org/2000/svg">
<metadata>
This is a custom SVG font generated by IcoMoon.
<iconset grid="32"></iconset>
</metadata>
<defs>
<font id="glyphs" horiz-adv-x="1024" >
<font-face units-per-em="1024" ascent="960" descent="-64" />
<missing-glyph horiz-adv-x="1024" />
<glyph class="hidden" unicode="&#xf000;" d="M0,960L 1024 -64L0 -64 z" horiz-adv-x="0" />
<glyph unicode="&#x21;" d="M 524.832,130.848l0-95.84 c 95.84-5.184, 169.984-36.928, 169.984-66.496
	c0-0.736-393.024-0.736-393.024,0c0,28.512, 68.608,59.232, 159.328,66.048l0,96.672 C 345.312,147.84, 256,246.432, 256,366.848l0,47.776 l 31.872,0 l0-47.776 
	c0-114.368, 92.704-207.104, 207.072-207.136l 0.128,0 c 114.368,0.032, 209.056,92.736, 209.056,207.136l0,47.776 L 736,414.624 l0-47.776 
	C 736,245.056, 642.592,145.696, 524.832,130.848z M 494.976,193.568c-96.768,0-175.296,78.496-175.296,175.296l0,45.792 l 352.576,0 l0-45.792 
	C 672.256,272.064, 591.744,193.568, 494.976,193.568z M 319.68,720.8c0,96.8, 78.496,175.264, 175.296,175.264s 177.28-78.464, 177.28-175.264l0-274.304 L 319.68,446.496 L 319.68,720.8 z
	"  />
<glyph unicode="&#x22;" d="M 524.8,130.048l0-95.776 c 95.744-5.152, 169.76-36.832, 169.76-66.4
	c0-0.736-392.576-0.736-392.576,0c0,28.448, 68.544,59.168, 159.136,65.984l0,96.576 c-115.648,16.576-204.864,115.104-204.864,235.328l0,49.76 l 31.84,0 l0-49.76 
	c0-114.24, 92.608-206.88, 206.848-206.912l 0.128,0 c 114.24,0.032, 206.848,92.672, 206.848,206.912l0,49.76 l 33.856,0 l0-49.76 
	C 735.744,244.128, 642.432,144.864, 524.8,130.048z M 496,193.44c-97.12,0-175.808,78.688-175.808,175.808l0,79.264 l 143.84,0 l0,31.968 l-143.84,0 l0,31.968 l 143.84,0 
	l0,31.936 l-143.84,0 l0,31.968 l 143.84,0 L 464.032,608.32 l-143.84,0 L 320.192,640.288 l 143.84,0 L 464.032,672.256 l-143.84,0 L 320.192,722.88 c0,97.088, 78.688,173.824, 175.808,173.824
	c 97.088,0, 175.808-76.704, 175.808-173.824l0-50.624 l-143.872,0 l0-31.968 l 143.872,0 l0-31.968 l-143.872,0 l0-31.968 l 143.872,0 l0-31.968 l-143.872,0 l0-31.936 l 143.872,0 l0-31.968 l-143.872,0 l0-31.968 
	l 143.872,0 l0-79.264 C 671.808,272.128, 593.088,193.44, 496,193.44z"  />
<glyph unicode="&#x23;" d="M 736,366.848l0,47.776 l-31.872,0 l0-47.776 c0-114.368-94.688-207.104-209.056-207.136l-0.128,0 
			c-114.368,0.032-207.072,92.736-207.072,207.136l0,47.776 L 256,414.624 l0-47.776 c0-120.416, 89.312-219.008, 205.12-235.584l0-96.672 
			c-90.752-6.848-159.328-37.568-159.328-66.048c0-0.736, 393.024-0.736, 393.024,0c0,29.568-74.112,61.312-169.952,66.496l0,95.84 
			C 642.592,145.696, 736,245.056, 736,366.848z M 494.976,193.568c 96.8,0, 177.28,78.496, 177.28,175.296l0,45.792 L 319.68,414.656 l0-45.792 
			C 319.68,272.064, 398.176,193.568, 494.976,193.568z M 672.256,720.8c0,96.8-80.48,175.264-177.28,175.264c-96.768,0-175.296-78.464-175.296-175.264l0-274.304 
			l 352.576,0 L 672.256,720.8 z M 560,831.616c 8.8,0, 16-7.168, 16-16s-7.2-16-16-16c-8.832,0-16,7.168-16,16S 551.168,831.616, 560,831.616z
			 M 496,831.616c 8.8,0, 16-7.168, 16-16s-7.2-16-16-16c-8.832,0-16,7.168-16,16S 487.168,831.616, 496,831.616z M 432,831.616
			c 8.8,0, 16-7.168, 16-16s-7.2-16-16-16c-8.832,0-16,7.168-16,16S 423.168,831.616, 432,831.616z M 368,479.616
			c-8.832,0-16,7.168-16,16s 7.168,16, 16,16c 8.8,0, 16-7.168, 16-16S 376.8,479.616, 368,479.616z M 368,543.616
			c-8.832,0-16,7.168-16,16s 7.168,16, 16,16c 8.8,0, 16-7.168, 16-16S 376.8,543.616, 368,543.616z M 368,607.616
			c-8.832,0-16,7.168-16,16c0,8.832, 7.168,16, 16,16c 8.8,0, 16-7.168, 16-16C 384,614.784, 376.8,607.616, 368,607.616z
			 M 368,671.616c-8.832,0-16,7.168-16,16s 7.168,16, 16,16c 8.8,0, 16-7.168, 16-16S 376.8,671.616, 368,671.616z M 400,735.616
			c-8.832,0-16,7.168-16,16s 7.168,16, 16,16c 8.8,0, 16-7.168, 16-16S 408.8,735.616, 400,735.616z M 432,479.616
			c-8.832,0-16,7.168-16,16s 7.168,16, 16,16c 8.8,0, 16-7.168, 16-16S 440.8,479.616, 432,479.616z M 432,543.616
			c-8.832,0-16,7.168-16,16s 7.168,16, 16,16c 8.8,0, 16-7.168, 16-16S 440.8,543.616, 432,543.616z M 432,607.616
			c-8.832,0-16,7.168-16,16c0,8.832, 7.168,16, 16,16c 8.8,0, 16-7.168, 16-16C 448,614.784, 440.8,607.616, 432,607.616z
			 M 432,671.616c-8.832,0-16,7.168-16,16s 7.168,16, 16,16c 8.8,0, 16-7.168, 16-16S 440.8,671.616, 432,671.616z M 464,735.616
			c-8.832,0-16,7.168-16,16s 7.168,16, 16,16c 8.8,0, 16-7.168, 16-16S 472.8,735.616, 464,735.616z M 496,479.616
			c-8.832,0-16,7.168-16,16s 7.168,16, 16,16c 8.8,0, 16-7.168, 16-16S 504.8,479.616, 496,479.616z M 496,543.616
			c-8.832,0-16,7.168-16,16s 7.168,16, 16,16c 8.8,0, 16-7.168, 16-16S 504.8,543.616, 496,543.616z M 496,607.616
			c-8.832,0-16,7.168-16,16c0,8.832, 7.168,16, 16,16c 8.8,0, 16-7.168, 16-16C 512,614.784, 504.8,607.616, 496,607.616z
			 M 496,671.616c-8.832,0-16,7.168-16,16s 7.168,16, 16,16c 8.8,0, 16-7.168, 16-16S 504.8,671.616, 496,671.616z M 528,735.616
			c-8.832,0-16,7.168-16,16s 7.168,16, 16,16c 8.8,0, 16-7.168, 16-16S 536.8,735.616, 528,735.616z M 560,479.616
			c-8.832,0-16,7.168-16,16s 7.168,16, 16,16c 8.8,0, 16-7.168, 16-16S 568.8,479.616, 560,479.616z M 560,543.616
			c-8.832,0-16,7.168-16,16s 7.168,16, 16,16c 8.8,0, 16-7.168, 16-16S 568.8,543.616, 560,543.616z M 560,607.616
			c-8.832,0-16,7.168-16,16c0,8.832, 7.168,16, 16,16c 8.8,0, 16-7.168, 16-16C 576,614.784, 568.8,607.616, 560,607.616z
			 M 560,671.616c-8.832,0-16,7.168-16,16s 7.168,16, 16,16c 8.8,0, 16-7.168, 16-16S 568.8,671.616, 560,671.616z M 592,735.616
			c-8.832,0-16,7.168-16,16s 7.168,16, 16,16c 8.8,0, 16-7.168, 16-16S 600.8,735.616, 592,735.616z M 624,479.616
			c-8.832,0-16,7.168-16,16s 7.168,16, 16,16c 8.8,0, 16-7.168, 16-16S 632.8,479.616, 624,479.616z M 624,543.616
			c-8.832,0-16,7.168-16,16s 7.168,16, 16,16c 8.8,0, 16-7.168, 16-16S 632.8,543.616, 624,543.616z M 624,607.616
			c-8.832,0-16,7.168-16,16c0,8.832, 7.168,16, 16,16c 8.8,0, 16-7.168, 16-16C 640,614.784, 632.8,607.616, 624,607.616z
			 M 624,671.616c-8.832,0-16,7.168-16,16s 7.168,16, 16,16c 8.8,0, 16-7.168, 16-16S 632.8,671.616, 624,671.616z"  />
<glyph unicode="&#x24;" d="M 512,791.232c-222.048,0-402.080-133.984-402.080-299.264c0-99.328, 65.024-187.328, 165.12-241.76
			c-0.288-0.864-79.744-145.44-79.744-145.44s 242.656,92.544, 243.328,92.928c 23.808-3.296, 48.352-4.96, 73.408-4.96
			c 222.048,0, 402.080,133.984, 402.080,299.232C 914.080,657.248, 734.048,791.232, 512,791.232z M 318.976,460c-17.664,0-32,14.336-32,32c0,17.696, 14.336,32, 32,32
			s 32-14.304, 32-32C 350.976,474.336, 336.672,460, 318.976,460z M 446.304,458.656c-17.664,0-32,14.336-32,32c0,17.696, 14.336,32, 32,32
			c 17.696,0, 32-14.304, 32-32C 478.304,472.992, 464,458.656, 446.304,458.656z M 575.616,458.656c-17.664,0-32,14.336-32,32c0,17.696, 14.336,32, 32,32
			c 17.696,0, 32-14.304, 32-32C 607.616,472.992, 593.312,458.656, 575.616,458.656z M 703.616,458.656c-17.664,0-32,14.336-32,32c0,17.696, 14.336,32, 32,32
			c 17.696,0, 32-14.304, 32-32C 735.616,472.992, 721.312,458.656, 703.616,458.656z"  />
<glyph unicode="&#x25;" d="M 756.7,621.176l-31.65-64.544c 30.274-25.958, 49.456-64.48, 49.456-107.446
			c0-47.378-10.742-90.216-46.45-115.918l 30.594-54.57c 46.706,41.91, 76.118,102.716, 76.118,170.426C 834.734,517.692, 804.524,579.264, 756.7,621.176z
			 M 991.606,847.194l-44.532-54.028c 83.054-90.664, 135.612-211.472, 135.612-344.112c0-132.414-52.46-253.064-135.228-343.696l 44.468-55.146
			c 94.724,106.648, 152.108,244.496, 152.108,398.842C 1144,602.986, 1085.88,740.61, 991.606,847.194z M 873.448,736.806l-39.642-57
			c 58.886-59.142, 96.226-140.662, 96.226-230.718c0-91.878-38.842-174.836-99.838-234.298l 41.208-54.698c 73.688,75.254, 118.060,175.316, 118.060,288.966
			C 989.464,560.594, 944.772,661.904, 873.448,736.806z M0,575.652l0-258.626 c0-32.96, 28.644-75.254, 63.938-75.254l 192.676,0 L 256.612,655.414 L 63.938,655.414 
			C 28.644,655.414,0,608.58,0,575.652z M 554.37,843.806L 286.44,659.122l0-423.586 l 267.93-186.698c 35.294,0, 85.932,26.726, 85.932,59.686L 640.302,784.12 
			C 640.302,817.080, 589.662,843.806, 554.37,843.806z" horiz-adv-x="1144"  />
<glyph unicode="&#x26;" d="M 496-33.984c-220.928,0-400,179.104-400,400c0,170.080, 106.336,315.008, 256,372.832l0-142.368 
	c-76.768-48.096-128-133.184-128-230.464c0-150.208, 121.792-272, 272-272s 272,121.792, 272,272c0,83.072-37.312,157.28-96,207.2L 672,724.768 
	c 132.576-65.152, 224-201.088, 224-358.784C 896,145.088, 716.896-33.984, 496-33.984z M 512,414.016c-35.328,0-64,28.672-64,64L 448,833.984 c0,35.328, 28.672,64, 64,64
	s 64-28.672, 64-64l0-356 C 576,442.656, 547.328,414.016, 512,414.016z"  />
<glyph unicode="&#x27;" d="M 519.904,808.544c0-53.888, 40.672-90.4, 90.88-90.4c 50.208,0, 90.944,36.544, 90.944,90.4
	c0,53.92-40.704,90.432-90.944,90.432C 560.608,898.976, 519.904,862.464, 519.904,808.544z M 323.072,500c0-10.688-1.952-37.216, 0.256-53.184
	l 79.328,95.456c 16.416,17.984, 35.392,30.56, 45.088,27.168c 9.728-3.392, 15.040-14.816, 11.872-25.44L 328.32,109.12
	c-15.136-50.816, 13.472-100.736, 83.168-112.128c 102.048,0, 162.688,69.056, 222.336,158.56c0,10.688, 3.552,38.816, 1.408,54.816l-79.328-95.424
	c-16.448-17.984-36.832-30.56-46.56-27.2c-8.96,3.136-14.208,13.12-12.448,23.072l 132.224,436.896c 11.008,55.488-18.88,105.984-82.048,112.448
	C 480.64,660.128, 382.72,589.472, 323.072,500z"  />
<glyph unicode="&#x28;" d="M 512,864C 282.24,864, 96,677.76, 96,448s 186.24-416, 416-416s 416,186.24, 416,416S 741.76,864, 512,864z
			 M 577.248,294.944c-31.392-47.136-63.328-83.456-117.056-83.456c-36.672,5.984-51.744,32.256-43.808,59.040l 69.12,228.928
			c 1.696,5.6-1.12,11.584-6.24,13.408c-5.088,1.792-15.072-4.832-23.712-14.304l-41.792-50.272c-1.12,8.448-0.128,22.4-0.128,28.032
			c 31.392,47.136, 82.976,84.32, 117.952,84.32c 33.248-3.392, 48.992-29.984, 43.2-59.2l-69.6-230.048c-0.928-5.184, 1.824-10.464, 6.528-12.128
			c 5.12-1.792, 15.872,4.832, 24.544,14.304l 41.76,50.24C 579.136,315.36, 577.248,300.576, 577.248,294.944z M 567.936,593.952
			c-26.432,0-47.872,19.264-47.872,47.616c0,28.352, 21.44,47.584, 47.872,47.584s 47.872-19.264, 47.872-47.584
			C 615.808,613.184, 594.368,593.952, 567.936,593.952z"  />
<glyph unicode="&#x29;" d="M 512,864C 282.24,864, 96,677.76, 96,448s 186.24-416, 416-416s 416,186.24, 416,416S 741.76,864, 512,864z M 512,96C 317.6,96, 160,253.6, 160,448S 317.6,800, 512,800
			s 352-157.6, 352-352S 706.4,96, 512,96z M 468.864,583.328c-21.568,23.648-47.456,35.456-77.792,35.456c-31.040,0-56.64-10.752-76.704-32.288
			c-8.096-8.832-14.56-19.232-19.328-31.232c-4.736-12-7.136-24.192-7.136-36.512c0-25.408, 7.168-47.040, 21.44-64.864
			c 14.304-17.824, 32.928-28.48, 55.904-32l 7.968-0.512l 6.88-1.088c 10.592-1.408, 15.904-5.472, 15.904-12.16c0-7.072-7.072-18.176-21.216-33.344
			c-14.848-16.224-38.336-32.672-70.496-49.216c-13.44-7.072-20.128-15.872-20.128-26.464c0-6.72, 2.272-12.288, 6.88-16.672
			c 4.576-4.416, 10.4-6.592, 17.472-6.592c 17.632,0, 41.984,10.208, 73.024,30.688c 36.672,24, 65.984,53.184, 87.84,87.616
			c 21.888,34.368, 32.8,68.352, 32.8,101.888c0,15.872-3.008,31.648-8.992,47.36C 487.2,559.072, 479.072,572.384, 468.864,583.328z M 720.736,583.328
			c-21.44,23.648-47.136,35.456-77.056,35.456c-31.328,0-56.864-10.752-76.576-32.288c-8.128-8.832-14.528-19.328-19.296-31.488
			c-4.768-12.192-7.136-24.256-7.136-36.256c0-25.408, 7.040-47.136, 21.088-65.12s 32.576-28.576, 55.424-31.744l 8.448-0.512l 6.304-1.088
			c 10.56-1.408, 15.84-5.472, 15.84-12.16c0-7.072-6.88-18.176-20.608-33.344c-14.432-15.52-37.856-31.936-70.208-49.216
			c-13.408-7.072-20.096-15.872-20.096-26.464c0-6.72, 2.304-12.288, 6.88-16.672c 4.608-4.416, 10.4-6.592, 17.44-6.592
			c 17.6,0, 41.92,10.208, 72.864,30.688c 36.64,24, 65.792,53.184, 87.424,87.616c 21.632,34.368, 32.48,68.352, 32.48,101.888
			c0,15.872-2.976,31.648-8.96,47.36C 739.072,559.072, 730.976,572.384, 720.736,583.328z"  />
<glyph unicode="&#x2a;" d="M 512,864C 282.24,864, 96,677.76, 96,448s 186.24-416, 416-416s 416,186.24, 416,416S 741.76,864, 512,864z M 512,96C 317.6,96, 160,253.6, 160,448S 317.6,800, 512,800
			s 352-157.6, 352-352S 706.4,96, 512,96z M 466.944,570.432c 13.408,7.072, 20.096,15.904, 20.096,26.496c0,6.688-2.272,12.256-6.848,16.672
			c-4.608,4.416-10.4,6.624-17.44,6.624c-17.632,0-41.92-10.24-72.896-30.688c-36.64-24-65.76-53.184-87.392-87.584
			c-21.632-34.4-32.48-68.384-32.48-101.92c0-15.872, 3.008-31.648, 8.992-47.36c 5.984-15.68, 14.080-28.992, 24.288-39.968
			c 21.472-23.648, 47.168-35.456, 77.088-35.456c 31.328,0, 56.864,10.784, 76.576,32.32c 8.096,8.8, 14.496,19.328, 19.296,31.488
			c 4.736,12.192, 7.136,24.256, 7.136,36.256c0,25.408-7.040,47.104-21.088,65.12s-32.576,28.576-55.424,31.744l-8.448,0.512l-6.336,1.088
			c-10.528,1.408-15.84,5.472-15.84,12.16c0,7.072, 6.88,18.176, 20.64,33.344C 411.2,536.736, 434.56,553.152, 466.944,570.432z M 719.68,570.432
			c 13.44,7.072, 20.128,15.904, 20.128,26.496c0,6.688-2.272,12.256-6.88,16.672c-4.576,4.416-10.4,6.624-17.472,6.624
			c-17.632,0-41.984-10.24-73.024-30.688c-36.672-24-65.952-53.184-87.808-87.584s-32.8-68.384-32.8-101.92c0-15.872, 3.008-31.648, 8.992-47.36
			c 6.016-15.68, 14.080-28.992, 24.32-39.968c 21.536-23.648, 47.424-35.456, 77.76-35.456c 31.072,0, 56.64,10.784, 76.736,32.32
			c 8.096,8.8, 14.56,19.232, 19.328,31.232c 4.736,12.032, 7.136,24.192, 7.136,36.544c0,25.408-7.168,47.008-21.44,64.832
			c-14.304,17.824-32.928,28.48-55.904,32l-7.968,0.512l-6.88,1.088c-10.56,1.408-15.872,5.472-15.872,12.16c0,7.072, 7.072,18.176, 21.184,33.344
			C 664.032,537.472, 687.52,553.856, 719.68,570.432z"  />
<glyph unicode="&#x2b;" d="M 896,0L 128,0 c-35.328,0-64,28.672-64,64L 64,736 c0,35.328, 28.672,64, 64,64l 64,0 l0-32 c0-53.024, 42.976-96, 96-96
	s 96,42.976, 96,96L 384,800 l 256,0 l0-32 c0-53.024, 43.008-96, 96-96s 96,42.976, 96,96L 832,800 l 64,0 c 35.328,0, 64-28.672, 64-64l0-672 C 960,28.672, 931.328,0, 896,0z M 896,576L 128,576 l0-512 l 768,0 L 896,576 z
	 M 418.208,325.472c 6.304,10.048, 9.472,20.672, 9.472,31.776c0,24.736-13.312,37.12-39.936,37.12c-23.136,0-45.248-9.184-66.368-27.552l0,52.128 
	c 23.36,15.136, 49.76,22.688, 79.136,22.688c 27.488,0, 48.96-6.912, 64.416-20.704s 23.168-32.48, 23.168-55.968c0-31.36-18.816-63.808-56.448-97.312
	l-55.328-49.12l0-1.12 l 109.12,0 l0-49.12 L 308.448,168.288 l0,46.112 l 77.056,73.696C 400.992,302.944, 411.904,315.392, 418.208,325.472z M 634.784,218.688
	c 8.448,6.496, 12.672,15.552, 12.672,27.2c0,12-5.216,21.248-15.648,27.744s-24.768,9.76-43.040,9.76l-24.192,0 l0,45.376 l 22.304,0 
	c 35.008,0, 52.512,11.616, 52.512,34.88c0,21.888-13.44,32.8-40.32,32.8c-17.984,0-35.488-5.824-52.512-17.44l0,48.384 
	c 18.88,9.504, 40.864,14.24, 65.984,14.24c 27.488,0, 48.896-6.176, 64.224-18.56s 22.976-28.448, 22.976-48.192c0-35.136-17.824-57.12-53.44-65.984l0-0.928 
	c 19.008-2.368, 33.984-9.28, 44.992-20.704s 16.512-25.472, 16.512-42.080c0-25.12-9.184-44.992-27.552-59.616s-43.744-21.952-76.128-21.952
	c-27.744,0-50.304,4.512-67.68,13.504l0,51.552 c 17.984-13.12, 39.008-19.68, 63.008-19.68C 614.56,208.928, 626.336,212.192, 634.784,218.688z
	 M 735.008,704C 700.192,704, 672,732.192, 672,767.008L 672,832.992 C 672,867.808, 700.192,896, 735.008,896s 63.008-28.192, 63.008-63.008l0-65.984 
	C 798.016,732.192, 769.824,704, 735.008,704z M 287.008,704C 252.192,704, 224,732.192, 224,767.008L 224,832.992 C 224,867.808, 252.192,896, 287.008,896s 63.008-28.192, 63.008-63.008l0-65.984 
	C 350.016,732.192, 321.792,704, 287.008,704z"  />
<glyph unicode="&#x2c;" d="M 512,864C 282.24,864, 96,677.76, 96,448s 186.24-416, 416-416s 416,186.24, 416,416S 741.76,864, 512,864z
	 M 744.256,566.176l-303.552-303.52c-7.616-7.584-19.936-7.584-27.552,0l-6.112,6.112l-0.032-0.032L 240,436.928
	c-7.616,7.616-7.616,19.968,0,27.584l 41.408,41.376c 7.616,7.616, 19.968,7.616, 27.584,0l 118.048-118.912l 248.192,248.192
	c 7.616,7.616, 19.968,7.616, 27.584,0l 41.408-41.408C 751.872,586.176, 751.872,573.824, 744.256,566.176z"  />
<glyph unicode="&#x2d;" d="M 698.24,543.040l-32.064,32.064c-5.92,5.92-15.488,5.92-21.376,0l-192.448-192.416l-91.488,92.224c-5.952,5.92-15.488,5.92-21.44,0
		l-32.064-32.096c-5.92-5.92-5.92-15.488,0-21.376l 134.176-135.136c 5.92-5.888, 15.488-5.888, 21.376,0l 235.328,235.328
		C 704.192,527.552, 704.192,537.12, 698.24,543.040zM 512,864C 282.24,864, 96,677.76, 96,448s 186.24-416, 416-416s 416,186.24, 416,416S 741.76,864, 512,864z M 512,128c-176.704,0-320,143.296-320,320
		c0,176.736, 143.296,320, 320,320c 176.736,0, 320-143.264, 320-320C 832,271.296, 688.736,128, 512,128z"  />
<glyph unicode="&#x2e;" d="M 512,32C 282.24,32, 96,218.24, 96,448S 282.24,864, 512,864s 416-186.24, 416-416S 741.76,32, 512,32z
	 M 702.752,569.312c 7.808,7.808, 7.808,20.512,0,28.32l-42.496,42.464c-7.808,7.808-20.512,7.808-28.32,0l-120.352-120.352l-120.352,120.352
	c-7.808,7.808-20.512,7.808-28.32,0l-42.496-42.464c-7.808-7.808-7.808-20.512,0-28.32l 120.384-120.384l-120.384-120.32
	c-7.808-7.808-7.808-20.512,0-28.32l 42.496-42.496c 7.808-7.808, 20.512-7.808, 28.32,0l 120.352,120.384l 120.352-120.384
	c 7.808-7.808, 20.512-7.808, 28.32,0l 42.496,42.496c 7.808,7.808, 7.808,20.512,0,28.32l-120.384,120.32L 702.752,569.312z"  />
<glyph unicode="&#x2f;" d="M 512,32C 282.24,32, 96,218.24, 96,448S 282.24,864, 512,864s 416-186.24, 416-416S 741.76,32, 512,32z M 512,768
	C 335.296,768, 192,624.704, 192,448s 143.296-320, 320-320c 176.736,0, 320,143.296, 320,320S 688.736,768, 512,768z M 657.184,334.88l-32.448-32.448
	c-5.952-5.952-15.616-5.952-21.6,0l-91.84,91.84l-91.84-91.84c-5.984-5.952-15.616-5.952-21.6,0l-32.448,32.448
	c-5.952,5.952-5.952,15.616,0,21.6l 91.872,91.808l-91.872,91.84c-5.952,5.984-5.952,15.648,0,21.632l 32.448,32.416
	c 5.984,5.984, 15.616,5.984, 21.6,0l 91.84-91.84l 91.84,91.84c 5.984,5.984, 15.648,5.984, 21.6,0l 32.448-32.416
	c 5.952-5.984, 5.952-15.648,0-21.632l-91.872-91.84l 91.872-91.808C 663.136,350.496, 663.136,340.8, 657.184,334.88z"  />
<glyph unicode="&#x30;" d="M 496,16c-229.76,0-416,186.24-416,416s 186.24,416, 416,416s 416-186.24, 416-416
	S 725.76,16, 496,16z M 702.016,449.984c0,17.664-14.336,32-32,32l-128,0 l0,128 c0,17.664-14.304,32-32,32l-32,0 c-17.696,0-32-14.336-32-32l0-128 l-128,0 
	c-17.696,0-32-14.336-32-32l0-32 c0-17.696, 14.304-32, 32-32l 128,0 l0-128 c0-17.696, 14.304-32, 32-32l 32,0 c 17.696,0, 32,14.304, 32,32l0,128 l 128,0 c 17.664,0, 32,14.304, 32,32L 702.016,449.984 z"  />
<glyph unicode="&#x31;" d="M 512,32C 282.24,32, 96,218.24, 96,448S 282.24,864, 512,864s 416-186.24, 416-416S 741.76,32, 512,32z M 512,768
	C 335.296,768, 192,624.736, 192,448c0-176.704, 143.296-320, 320-320c 176.736,0, 320,143.296, 320,320C 832,624.736, 688.736,768, 512,768z M 639.616,416l-96,0 l0-96 
	c0-17.696-14.336-32-32-32c-17.696,0-32,14.304-32,32l0,96 l-96,0 c-17.696,0-32,14.336-32,32c0,17.664, 14.304,32, 32,32l 96,0 l0,96 c0,17.696, 14.304,32, 32,32
	c 17.664,0, 32-14.304, 32-32l0-96 l 96,0 c 17.664,0, 32-14.336, 32-32C 671.616,430.336, 657.28,416, 639.616,416z"  />
<glyph unicode="&#x32;" d="M 496,848c-229.76,0-416-186.24-416-416s 186.24-416, 416-416c 229.76,0, 416,186.24, 416,416
			S 725.76,848, 496,848z M 704,420c0-17.696-14.336-32-32-32L 320,388 c-17.696,0-32,14.304-32,32l0,32 c0,17.664, 14.304,32, 32,32l 352,0 c 17.664,0, 32-14.336, 32-32
			L 704,420 z"  />
<glyph unicode="&#x33;" d="M 512,864C 282.24,864, 96,677.76, 96,448s 186.24-416, 416-416s 416,186.24, 416,416S 741.76,864, 512,864z M 512,128
			c-176.704,0-320,143.296-320,320c0,176.736, 143.296,320, 320,320c 176.736,0, 320-143.264, 320-320C 832,271.296, 688.736,128, 512,128z M 631.616,480l-256,0 
			c-17.696,0-32-14.336-32-32c0-17.696, 14.304-32, 32-32l 256,0 c 17.696,0, 32,14.304, 32,32C 663.616,465.664, 649.312,480, 631.616,480z"  />
<glyph unicode="&#x34;" d="M 496,848c-229.76,0-416-186.24-416-416s 186.24-416, 416-416s 416,186.24, 416,416
			S 725.76,848, 496,848z M 496,196c-26.528,0-48,21.504-48,48s 21.472,48, 48,48c 26.496,0, 48-21.504, 48-48
			S 522.496,196, 496,196z M 544,404c0-26.496-21.504-48-48-48c-26.528,0-48,21.504-48,48l0,224 c0,26.528, 21.472,48, 48,48
			c 26.496,0, 48-21.472, 48-48L 544,404 z"  />
<glyph unicode="&#x35;" d="M 496,864C 257.408,864, 64,670.592, 64,432S 257.408,0, 496,0S 928,193.408, 928,432
			S 734.592,864, 496,864z M 496,96C 310.432,96, 160,246.432, 160,432S 310.432,768, 496,768S 832,617.568, 832,432S 681.568,96, 496,96z M 496,640
			c-26.496,0-48-21.472-48-48l0-161.984 c0-26.496, 21.504-48, 48-48s 48,21.504, 48,48L 544,592 C 544,618.528, 522.496,640, 496,640z M 496,320
			c-26.496,0-48-21.504-48-48s 21.504-48, 48-48s 48,21.504, 48,48S 522.496,320, 496,320z"  />
<glyph unicode="&#x36;" d="M 831.84,349.824l-42.368,0 c-6.88-24.928-16.736-48.576-29.376-70.496l 39.168-39.136
	c 25.056-25.056, 25.056-65.696,0-90.752l-22.688-22.688c-25.056-25.056-65.696-25.056-90.752,0L 646.4,166.144c-21.856-12.448-45.408-22.144-70.208-28.896
	l0-41.088 c0-35.424-28.704-64.16-64.16-64.16l-32.064,0 c-35.424,0-64.192,28.704-64.192,64.16l0,41.088 c-24.768,6.752-48.352,16.48-70.208,28.896
	l-39.392-39.392c-25.024-25.056-65.664-25.056-90.72,0L 192.736,149.44c-25.056,25.056-25.056,65.696,0,90.752l 39.168,39.136
	c-12.64,21.952-22.496,45.568-29.408,70.496L 160.16,349.824 C 124.704,349.824, 96,378.528, 96,413.952l0,32.096 c0,35.424, 28.704,64.16, 64.16,64.16l 41.856,0 
	C 208.64,534.88, 218.112,558.368, 230.4,580.16l-37.664,37.632c-25.056,25.056-25.056,65.696,0,90.752l 22.688,22.656c 25.056,25.056, 65.696,25.056, 90.72,0
	l 36.896-36.896c 22.592,13.152, 46.976,23.392, 72.704,30.4L 415.744,767.84 C 415.776,803.296, 444.544,832, 479.968,832l 32.064,0 c 35.424,0, 64.16-28.704, 64.16-64.16
	l0-43.104 c 25.792-7.040, 50.144-17.28, 72.704-30.432l 36.896,36.896c 25.056,25.056, 65.696,25.056, 90.752,0l 22.688-22.656
	c 25.056-25.056, 25.056-65.696,0-90.752L 761.6,580.16c 12.288-21.792, 21.76-45.28, 28.416-69.984l 41.856,0 c 35.424,0, 64.16-28.736, 64.16-64.16l0-32.096 
	C 896,378.528, 867.296,349.824, 831.84,349.824z M 496,605.44c-97.44,0-176.448-79.008-176.448-176.448s 79.008-176.448, 176.448-176.448
	s 176.448,79.008, 176.448,176.448S 593.44,605.44, 496,605.44z M 496,350.816c-44.288,0-80.224,35.872-80.224,80.192c0,44.288, 35.936,80.192, 80.224,80.192
	s 80.192-35.904, 80.192-80.192C 576.192,386.688, 540.288,350.816, 496,350.816z"  />
<glyph unicode="&#x37;" d="M 977.76,152.992L 577.152,838.944c-33.408,33.408-87.616,33.408-121.024,0L 55.488,152.992
			c-33.408-33.376-33.408-87.552,0-120.992l 922.24,0 C 1011.2,65.44, 1011.2,119.616, 977.76,152.992z M 479.744,592.704c0,26.528, 21.504,48, 48,48
			s 48-21.472, 48-48l0-224 c0-26.496-21.504-48-48-48s-48,21.504-48,48L 479.744,592.704 z M 528.032,160.448c-26.496,0-48,21.44-48,48
			c0,26.496, 21.504,48, 48,48s 48-21.504, 48-48C 576.032,181.888, 554.528,160.448, 528.032,160.448z"  />
<glyph unicode="&#x38;" d="M 927.936,687.008l-68.288,68.288c-12.608,12.576-32.96,12.576-45.536,0L 404.672,345.856
	L 209.92,542.016c-12.576,12.576-32.928,12.576-45.536,0l-68.288-68.288c-12.576-12.608-12.576-32.96,0-45.536l 285.568-287.488
	c 12.576-12.576, 32.96-12.576, 45.536,0L 927.936,641.472C 940.512,654.016, 940.512,674.432, 927.936,687.008z"  />
<glyph unicode="&#x39;" d="M 626.784,447.968l 195.072-195.072c 12.672-12.672, 12.672-33.248,0-45.92l-68.832-68.832
	c-12.672-12.672-33.216-12.672-45.92,0L 512,333.216l-195.104-195.072c-12.672-12.672-33.216-12.672-45.888,0l-68.864,68.832
	c-12.672,12.672-12.672,33.216,0,45.92l 195.104,195.072L 202.144,643.072c-12.672,12.672-12.672,33.248,0,45.92L 271.040,757.824
	c 12.672,12.672, 33.216,12.672, 45.888,0L 512,562.72l 195.104,195.104c 12.672,12.672, 33.216,12.672, 45.92,0l 68.832-68.864
	c 12.672-12.672, 12.672-33.216,0-45.92L 626.784,447.968z"  />
<glyph unicode="&#x3a;" d="M 512,848c-229.792,0-416-186.24-416-416s 186.208-416, 416-416c 229.728,0, 416,186.24, 416,416
			S 741.76,848, 512,848z M 508.64,95.136c-185.568,0-336,150.432-336,336c0,185.568, 150.432,336, 336,336c 185.536,0, 336-150.432, 336-336
			C 844.64,245.568, 694.176,95.136, 508.64,95.136z M 605.76,411.808l-95.36,0 l0,161.024 c0,17.472-14.176,31.68-31.648,31.68
			c-17.504,0-31.68-14.176-31.68-31.68l0-192.672 c0-17.504, 14.176-31.648, 31.68-31.648l 127.008,0 c 17.504,0, 31.68,14.144, 31.68,31.648
			C 637.44,397.632, 623.264,411.808, 605.76,411.808z"  />
<glyph unicode="&#x3b;" d="M 768,64l0,64 l-0.8,0 C 767.488,133.312, 768,138.592, 768,144L 768,416 l0,80 
	C 768,646.208, 646.208,768, 496,768S 224,646.208, 224,496L 224,416 l0-272 c0-5.408, 0.512-10.688, 0.8-16L 224,128 l0-64 c0,0-160,2.688-160,176c0,98.304, 51.424,141.664, 96,160.8
	L 160,496 C 160,681.568, 310.432,832, 496,832S 832,681.568, 832,496l0-95.2 c 44.576-19.168, 96-62.496, 96-160.8C 928,66.688, 768,64, 768,64z M 288,64L 256,64 L 256,416 l 32,0 L 288,64 z M 736,64
	l-32,0 L 704,416 l 32,0 L 736,64 z"  />
<glyph unicode="&#x3c;" d="M 549.184,821.088C 211.2,821.088,0,448,0,448s 209.184-373.088, 549.184-373.088
			C 867.2,74.912, 1108.576,448, 1108.576,448S 869.184,821.088, 549.184,821.088z M 552.192,279.968c-92.608,0-167.616,75.040-167.616,167.616
			s 75.040,167.648, 167.616,167.648s 167.648-75.072, 167.648-167.648S 644.768,279.968, 552.192,279.968z M 553.216,531.392c-46.080,0-83.424-37.376-83.424-83.424
			c0-46.080, 37.344-83.424, 83.424-83.424s 83.424,37.344, 83.424,83.424C 636.672,494.016, 599.328,531.392, 553.216,531.392z" horiz-adv-x="1120"  />
<glyph unicode="&#x3d;" d="M 528,177.696l0,31.872 c 107.264-3.168, 191.776-37.568, 191.776-79.584
	c0-44.128-92.992-81.92-207.744-81.92c-114.752,0-207.744,37.792-207.744,81.92c0,42.016, 84.512,76.448, 191.744,79.584l0-31.872 
	c-89.568-2.208-159.776-22.72-159.776-47.712c0-26.464, 78.688-51.936, 175.776-51.936c 97.056,0, 175.744,25.472, 175.744,51.936
	C 687.744,154.976, 617.568,175.456, 528,177.696z M 336.512,672.16c0,97.056, 80.672,175.776, 177.792,175.776c 97.088,0, 175.776-78.72, 175.776-175.776
	c0-83.424-58.176-153.152-136.192-171.136L 512,78.016l-42.016,424.192C 394.4,521.888, 336.512,590.4, 336.512,672.16z M 512,719.232
	c0,26.496-21.472,47.936-47.936,47.936c-26.496,0-47.968-21.44-47.968-47.936c0-26.464, 21.472-47.936, 47.968-47.936C 490.56,671.296, 512,692.736, 512,719.232z
	"  />
<glyph unicode="&#x3e;" d="M 891.936,64c0,0, 176.64-0.192, 201.44,172.64c 11.808,188.992-170.752,226.24-170.752,226.24
	s 20.768,279.776-235.552,311.68c-219.68,22.432-286.528-181.728-286.528-181.728s-66.176,63.616-155.936,11.648c-80.352-49.6-66.144-140.416-66.144-140.416
	S0,429.376,0,247.488C 4,65.824, 193.824,64, 193.824,64" horiz-adv-x="1120"  />
<glyph unicode="&#x3f;" d="M 357.216,590.272c0,84.96, 69.312,153.824, 154.784,153.824s 154.784-68.864, 154.784-153.824
	S 597.472,436.48, 512,436.48S 357.216,505.344, 357.216,590.272z M 248.864,571.072c0-64.352, 78.528-200, 78.528-200L 512,63.424l 174.016,307.616
	c0,0, 89.12,136.64, 89.12,200c0,144.416-117.824,261.472-263.136,261.472S 248.864,715.488, 248.864,571.072z"  />
<glyph unicode="&#x40;" d="M0,512l0,96 l 120,0 l 240.992,241.024C 359.392,853.792, 358.016,858.656, 358.016,864
	c0,26.528, 21.472,48, 48,48c 26.496,0, 48-21.472, 48-48c0-26.496-21.504-48-48-48c-3.552,0-6.688,1.312-9.984,2.016L 185.984,608l 619.328,0 
	l-208.8,210.528C 592.384,817.376, 588.448,816, 584,816c-26.496,0-48,21.504-48,48c0,26.528, 21.504,48, 48,48s 48-21.472, 48-48
	c0-4.896-1.44-9.376-2.816-13.856L 871.328,608L 992,608 l0-96 L0,512 z M 795.808,35.136c-9.376-37.504-35.36-35.424-35.36-35.424L 229.408-1.312
	c-27.072,0-34.336,34.304-34.336,34.304L 54.688,479.552l 882.368,0.832L 795.808,35.136z M 319.968,416l-32,0 l0-160 l 32,0 L 319.968,416 z M 319.968,224l-32,0 l0-160 l 32,0 L 319.968,224 z M 383.968,416
	L 352,416 l0-160 l 31.968,0 L 383.968,416 z M 383.968,224L 352,224 l0-160 l 31.968,0 L 383.968,224 z M 447.968,416l-32,0 l0-160 l 32,0 L 447.968,416 z M 447.968,224l-32,0 l0-160 l 32,0 L 447.968,224 z M 512,416l-32,0 l0-160 l 32,0 L 512,416 z M 512,224l-32,0 l0-160 l 32,0 L 512,224 z
	 M 576,416l-32,0 l0-160 l 32,0 L 576,416 z M 576,224l-32,0 l0-160 l 32,0 L 576,224 z M 640,416l-32,0 l0-160 l 32,0 L 640,416 z M 640,224l-32,0 l0-160 l 32,0 L 640,224 z M 704,416l-32,0 l0-160 l 32,0 L 704,416 z M 704,224l-32,0 l0-160 l 32,0 L 704,224 z"  />
<glyph unicode="&#x41;" d="M 864.416,151.104l0-58.4 L 159.584,92.704 l0,58.4 c0,0-15.072,32.288, 66.72,109.728
	C 308.032,338.24, 297.28,538.336, 297.28,673.856s 190.336,138.4, 190.336,138.4l 6.528,0 c0-0.064,0,0.928,0,22.016c0,13.536-45.44,62.56-45.44,62.56
	l-0.672,29.664l 128.32,0 l-0.864-30.784c0,0-49.248-48.992-49.248-63.424c0-13.952,0-18.624,0-20l 10.144,0 c0,0, 190.336-2.88, 190.336-138.4
	S 715.968,338.24, 797.728,260.8S 864.416,151.104, 864.416,151.104z M 592.384,61.76c0-44.32-35.904-92.256-80.192-92.256S 432,17.44, 432,61.76
	C 432,60.768, 592.384,62.784, 592.384,61.76z"  />
<glyph unicode="&#x42;" d="M 889.344,151.104l 0.032-58.4L 221.536,92.704 L 751.36,622.56
	c-0.96-130.528-0.672-293.632, 71.296-361.76C 904.416,183.36, 889.344,151.104, 889.344,151.104z M 133.568,96.64L 814.048,777.088l 22.656-22.688
	L 156.256,73.952L 133.568,96.64z M 251.264,260.8c 81.76,77.44, 71.008,277.504, 71.008,413.056s 190.336,138.4, 190.336,138.4l 6.496,0 
	c0-0.064,0,0.928,0,22.016c0,13.536-45.44,62.56-45.44,62.56l-0.672,29.664l 128.32,0 l-0.896-30.784c0,0-49.216-48.992-49.216-63.424
	c0-13.952,0-18.624,0-20l 10.144,0 c0,0, 121.632-2.048, 170.336-72.16L 222.592,231.008C 230.56,240.128, 239.744,249.92, 251.264,260.8z M 617.344,61.76
	c0-44.32-35.904-92.256-80.192-92.256c-44.32,0-80.224,47.936-80.224,92.256C 456.928,60.768, 617.344,62.784, 617.344,61.76z"  />
<glyph unicode="&#x43;" d="M 516.16,903.008c-171.872,0-262.080-135.552-262.080-258.88c0-138.368, 128.768-225.376, 128.768-451.648
			l 130.4,0 c0,0, 122.464-0.576, 126.176-0.576c 3.712,227.936, 130.496,317.6, 130.496,453.312C 769.952,761.024, 688.032,903.008, 516.16,903.008z M 623.168,159.008
			l-224,0 c-8.832,0-16-7.168-16-16s 7.168-16, 16-16l 224,0 c 8.8,0, 16,7.168, 16,16S 631.968,159.008, 623.168,159.008z M 623.168,95.008l-224,0 
			c-8.832,0-16-7.168-16-16s 7.168-16, 16-16l 224,0 c 8.8,0, 16,7.168, 16,16S 631.968,95.008, 623.168,95.008zM 415.168,31.008c0,0,0-14.304,0-32c0-17.664, 14.304-32, 32-32l 128.448,0 c 17.696,0, 32,14.336, 32,32
	c0,17.696,0,32,0,32L 415.168,31.008 z"  />
<glyph unicode="&#x44;" d="M 681.76,659.040c 17.056,4.608, 27.2,22.112, 22.624,39.2
		c-4.576,17.088-22.112,27.232-39.2,22.624l-322.912-99.36c-17.088-4.576-27.2-22.112-22.656-39.2c 4.576-17.056, 22.112-27.232, 39.2-22.624
		l 26.656,8.192L 416,512.256l-32,0 c-35.328,0-64-28.672-64-64l0-133.344 l 64-90.656l 256,0 l 64,90.656l0,133.344 c0,35.328-28.672,64-64,64l-32,0 l 64.48,143.936L 681.76,659.040z
		 M 544,512.256l-64,0 l-39.776,72.448l 158.016,48.64L 544,512.256zM 665.184,816.832L 342.272,717.472c-17.088-4.576-27.2-22.112-22.656-39.2
		c 4.576-17.056, 22.112-27.232, 39.2-22.624l 322.912,99.36c 17.056,4.608, 27.2,22.112, 22.624,39.2S 682.24,821.44, 665.184,816.832zM 358.816,751.648l 322.912,99.36c 17.056,4.608, 27.2,22.112, 22.624,39.2
		c-4.576,17.088-22.112,27.232-39.2,22.624L 342.272,813.472c-17.088-4.576-27.2-22.112-22.656-39.2C 324.192,757.216, 341.76,747.072, 358.816,751.648zM 624,192.256l-224,0 c-8.832,0-16-7.168-16-16s 7.168-16, 16-16l 224,0 
		c 8.8,0, 16,7.168, 16,16S 632.8,192.256, 624,192.256zM 624,128.256l-224,0 c-8.832,0-16-7.168-16-16s 7.168-16, 16-16l 224,0 
		c 8.8,0, 16,7.168, 16,16S 632.8,128.256, 624,128.256zM 624,64.256l-224,0 c-8.832,0-16-7.168-16-16s 7.168-16, 16-16l 224,0 
		c 8.8,0, 16,7.168, 16,16S 632.8,64.256, 624,64.256zM 464,0.256c-3.232-26.304, 21.504-48, 48-48s 48,21.504, 48,48
		C 560-1.12, 464-3.136, 464,0.256zM 360.672,846.208l 213.76,66.976c 16.864,5.28, 26.24,23.264, 20.96,40.096
		c-5.28,16.864-23.232,26.272-40.096,20.992l-213.76-66.976c-16.864-5.28-26.24-23.264-20.96-40.128C 325.856,850.336, 343.808,840.928, 360.672,846.208z"  />
<glyph unicode="&#x45;" d="M 896,160l-96,0 l0,32 c 17.696,0, 32,14.336, 32,32c0,17.696-14.304,32-32,32l-64,0 c-17.696,0-32-14.304-32-32
	c0-17.664, 14.304-32, 32-32l0-32 L 320,160 l0,32 c 17.696,0, 32,14.336, 32,32c0,17.696-14.304,32-32,32L 256,256 c-17.696,0-32-14.304-32-32c0-17.664, 14.304-32, 32-32l0-32 L 128,160 
	c-35.328,0-64,28.672-64,64L 64,672 c0,35.328, 28.672,64, 64,64l 768,0 c 35.328,0, 64-28.672, 64-64l0-448 C 960,188.672, 931.328,160, 896,160z M 320,646.016
	c-38.656,0-70.016-41.184-70.016-92S 281.344,462.016, 320,462.016s 70.016,41.184, 70.016,92S 358.656,646.016, 320,646.016z M 431.68,425.984
	c-17.248,11.488-66.912,19.136-66.912,19.136s-32.192-34.4-45.856-34.4c-13.696,0-45.888,34.4-45.888,34.4s-49.664-7.616-66.88-19.136
	c-17.248-11.456-24.864-72.352-24.864-72.352l 275.68,0 C 456.992,353.664, 451.936,412.512, 431.68,425.984z M 832,608l-288,0 l0-32 l 288,0 L 832,608 z M 832,544l-288,0 l0-32 l 288,0 L 832,544 z
	 M 832,480l-288,0 l0-32 l 288,0 L 832,480 z M 832,416l-288,0 l0-32 l 288,0 L 832,416 z"  />
<glyph unicode="&#x46;" d="M 656,480l-288,0 c-35.328,0-64-28.672-64-64s 28.672-64, 64-64l 288,0 c 35.328,0, 64,28.672, 64,64
			S 691.328,480, 656,480z M 434.656,704L 400,512l 224,0 l-34.688,192L 434.656,704 z M 512,32l 48,288l-96,0 L 512,32z M 416,736l 192,0 c 26.496,0, 48,21.504, 48,48
			S 634.496,832, 608,832l-192,0 c-26.528,0-48-21.504-48-48S 389.472,736, 416,736z"  />
<glyph unicode="&#x47;" d="M 918.88,450.048l 71.68-71.744c 4.672-4.64, 4.672-12.192,0-16.864l-25.312-25.312
	c-4.64-4.64-12.192-4.64-16.864,0l-71.68,71.744l-71.744-71.744c-4.672-4.64-12.192-4.64-16.864,0l-25.312,25.312
	c-4.64,4.672-4.64,12.256,0,16.864l 71.744,71.744l-71.744,71.744c-4.64,4.672-4.64,12.192,0,16.864l 25.312,25.312
	c 4.672,4.672, 12.224,4.672, 16.864,0l 71.744-71.712l 71.68,71.712c 4.672,4.672, 12.256,4.672, 16.864,0l 25.312-25.312
	c 4.672-4.672, 4.672-12.224,0-16.864L 918.88,450.048z M 584.8,50.112l-268.128,186.88L 316.672,661.024 l 268.128,184.864c 35.36,0, 86.048-26.752, 86.048-59.744
	l0-676.256 C 670.88,76.864, 620.192,50.112, 584.8,50.112z M 29.952,316.576l0,260.896 c0,32.96, 28.672,79.84, 64,79.84l 192.864,0 l0-416.032 L 93.952,241.28 
	C 58.592,241.248, 29.952,283.552, 29.952,316.576z"  />
<glyph unicode="&#x48;" d="M 746.4,34.112l-268.16,186.88L 478.24,645.024 l 268.16,184.864c 35.36,0, 86.048-26.752, 86.048-59.744
	l0-676.256 C 832.48,60.864, 781.792,34.112, 746.4,34.112z M 448.416,227.264L 255.552,227.264 c-35.36,0-64,42.304-64,75.328l0,258.88 
	c0,32.96, 28.672,79.84, 64,79.84l 192.864,0 L 448.416,227.264 z"  />
<glyph unicode="&#x49;" d="M0,160L0,736 l 1024,0 l0-576 L0,160 z M 64,673.984L 64,224 l 896,0 L 960,673.984 L 64,673.984 z M 672,448c0,106.016-71.616,192-160,192l 416,0 l0-384 L 512,256 
	C 600.384,256, 672,341.984, 672,448z M 800,384c 26.496,0, 48,28.672, 48,64s-21.504,64-48,64s-48-28.672-48-64S 773.504,384, 800,384z M 579.776,528.704
	c-0.48-1.76-1.152-3.008-1.984-3.808c-0.864-0.8-2.016-1.184-3.488-1.184s-3.776,0.896-7.008,2.752
	c-3.2,1.888-7.136,3.872-11.776,6.048c-4.672,2.176-10.048,4.16-16.192,5.984c-6.144,1.792-12.864,2.656-20.192,2.656
	c-5.76,0-10.752-0.672-15.008-2.080c-4.256-1.376-7.84-3.328-10.688-5.76c-2.88-2.464-4.992-5.44-6.4-8.864
	c-1.376-3.424-2.080-7.104-2.080-10.944c0-5.76, 1.568-10.72, 4.704-14.912c 3.136-4.192, 7.328-7.936, 12.608-11.2
	c 5.28-3.296, 11.232-6.336, 17.92-9.184c 6.624-2.88, 13.44-5.92, 20.384-9.088c 6.944-3.232, 13.728-6.848, 20.384-10.912
	c 6.688-4.064, 12.64-8.928, 17.824-14.592s 9.376-12.32, 12.608-19.968c 3.2-7.68, 4.768-16.672, 4.768-27.104c0-13.6-2.496-25.504-7.552-35.776
	c-5.088-10.24-11.936-18.816-20.64-25.664c-8.672-6.88-18.784-12.032-30.368-15.488c-1.472-0.448-3.072-0.64-4.576-0.992l0-34.944 l-31.456,0 
	l0,30.816 c-0.416,0-0.768-0.064-1.152-0.064c-8.928,0-17.248,0.704-24.896,2.144c-7.68,1.472-14.432,3.232-20.288,5.248
	c-5.888,2.048-10.752,4.192-14.688,6.432c-3.936,2.24-6.752,4.224-8.48,5.952c-1.728,1.728-2.976,4.224-3.712,7.488
	c-0.736,3.296-1.12,7.968-1.12,14.112c0,4.128, 0.128,7.584, 0.416,10.4s 0.704,5.056, 1.312,6.816s 1.376,2.976, 2.4,3.712
	c 0.992,0.704, 2.144,1.088, 3.488,1.088c 1.856,0, 4.48-1.088, 7.904-3.296c 3.392-2.208, 7.776-4.64, 13.088-7.296
	c 5.344-2.688, 11.68-5.088, 19.104-7.328c 7.392-2.176, 15.968-3.296, 25.696-3.296c 6.4,0, 12.128,0.768, 17.184,2.304s 9.376,3.68, 12.896,6.496
	s 6.208,6.272, 8.096,10.4c 1.888,4.16, 2.816,8.736, 2.816,13.856c0,5.856-1.632,10.88-4.8,15.104c-3.2,4.192-7.36,7.904-12.512,11.2
	c-5.12,3.264-10.944,6.304-17.472,9.184c-6.528,2.88-13.248,5.92-20.192,9.088c-6.912,3.2-13.664,6.816-20.192,10.912
	c-6.528,4.064-12.352,8.896-17.472,14.56c-5.12,5.664-9.312,12.384-12.48,20.096c-3.2,7.712-4.8,16.992-4.8,27.776
	c0,12.416, 2.304,23.296, 6.88,32.672c 4.608,9.376, 10.784,17.184, 18.592,23.36s 16.992,10.816, 27.584,13.888c 5.44,1.6, 11.072,2.72, 16.832,3.488
	l0,33.088 l 31.456,0 l0-33.088 c 1.248-0.16, 2.496-0.096, 3.744-0.288c 6.112-0.928, 11.872-2.176, 17.184-3.776c 5.344-1.568, 10.048-3.328, 14.208-5.344
	c 4.128-1.984, 6.848-3.616, 8.192-4.96c 1.344-1.312, 2.208-2.432, 2.72-3.36c 0.448-0.928, 0.832-2.176, 1.184-3.712
	c 0.32-1.536, 0.576-3.456, 0.672-5.824c 0.128-2.304, 0.192-5.216, 0.192-8.672c0-3.872-0.096-7.168-0.288-9.856
	C 580.576,532.672, 580.256,530.432, 579.776,528.704z M 352,448c0-106.016, 71.616-192, 160-192L 96,256 L 96,640 l 416,0 C 423.616,640, 352,554.016, 352,448z M 224,512
	c-26.528,0-48-28.672-48-64s 21.472-64, 48-64c 26.496,0, 48,28.672, 48,64S 250.496,512, 224,512z"  />
<glyph unicode="&#x4a;" d="M 864,385.984l0,96 l 64,0 l0-96 L 864,385.984 z M 864,608l 64,0 l0-96 l-64,0 L 864,608 z M 864,736l 64,0 l0-96 l-64,0 L 864,736 z M 768,32L 192,32 
	c-35.328,0-64,28.672-64,64l 16,0 C 170.496,96, 192,117.504, 192,144S 170.496,192, 144,192L 128,192 l0,32 l 16,0 C 170.496,224, 192,245.504, 192,272S 170.496,320, 144,320L 128,320 l0,32 l 16,0 
	C 170.496,352, 192,373.504, 192,400S 170.496,448, 144,448L 128,448 l0,32 l 16,0 C 170.496,480, 192,501.504, 192,528S 170.496,576, 144,576L 128,576 l0,32 l 16,0 C 170.496,608, 192,629.504, 192,656
	S 170.496,704, 144,704L 128,704 L 128,800 c0,35.328, 28.672,64, 64,64l 576,0 c 23.616,0, 44.032-12.928, 55.136-32L 192,832 C 174.304,832, 160,817.696, 160,800c0-17.664, 14.304-32, 32-32l 640,0 l0-672 
	C 832,60.672, 803.328,32, 768,32z M 496,654.016c-38.656,0-70.016-41.184-70.016-92s 31.328-92, 70.016-92s 70.016,41.184, 70.016,92
	S 534.656,654.016, 496,654.016z M 607.68,425.984c-17.248,11.488-66.912,19.136-66.912,19.136s-32.192-34.4-45.856-34.4
	c-13.696,0-45.888,34.4-45.888,34.4s-49.664-7.616-66.88-19.136c-17.248-11.456-24.864-72.352-24.864-72.352l 275.68,0 
	C 632.992,353.664, 627.936,412.512, 607.68,425.984z M 160,656C 160,647.168, 152.832,640, 144,640l-32,0 C 103.168,640, 96,647.168, 96,656S 103.168,672, 112,672l 32,0 
	C 152.832,672, 160,664.832, 160,656z M 112,544l 32,0 C 152.832,544, 160,536.832, 160,528S 152.832,512, 144,512l-32,0 C 103.168,512, 96,519.168, 96,528S 103.168,544, 112,544z M 112,416
	l 32,0 C 152.832,416, 160,408.832, 160,400S 152.832,384, 144,384l-32,0 C 103.168,384, 96,391.168, 96,400S 103.168,416, 112,416z M 112,288l 32,0 C 152.832,288, 160,280.832, 160,272
	S 152.832,256, 144,256l-32,0 C 103.168,256, 96,263.168, 96,272S 103.168,288, 112,288z M 112,160l 32,0 C 152.832,160, 160,152.832, 160,144S 152.832,128, 144,128l-32,0 
	C 103.168,128, 96,135.168, 96,144S 103.168,160, 112,160z"  />
<glyph unicode="&#x4b;" d="M 512.48,356.448l-130.304,106.976L 98.592,128.608l 828.032,0 l-283.616,338.144L 512.48,356.448z
			 M 957.632,767.392L 67.552,767.392 l 445.056-374.336L 957.632,767.392z M 662.56,483.616l 297.312-354.688L 959.872,735.392 L 662.56,483.616z M 64.128,735.392l0-606.464 
			l 297.312,354.688L 64.128,735.392z"  />
<glyph unicode="&#x4c;" d="M 644.448,354.112l 313.184,255.968L 512,924.736l-444.48-314.656l 314.368-257.024L 644.448,354.112z
			 M 395.52,322.048L 98.592-28.736l 828.032,0 l-299.616,348.8L 395.52,322.048z M 662.56,326.304l 297.312-354.688L 959.872,578.080 L 662.56,326.304z M 64.128,578.080
			l0-606.464 l 297.312,354.688L 64.128,578.080z"  />
<glyph unicode="&#x4d;" d="M 513.344,692.96c0,0-64,136.384-208,136.384c-157.344,0-240-133.344-240-266.656
	c0-221.344, 448-496, 448-496s 445.312,272, 445.312,496c0,136-85.312,266.656-237.312,266.656S 513.344,692.96, 513.344,692.96z"  />
<glyph unicode="&#x4e;" d="M 502.208,526.688l 85.312-85.28l 160.512,160.544l 82.88-82.88l 0.128,247.488l-249.12,1.472
			l 80.832-80.8L 502.208,526.688z M 829.632,417.76l-61.44,62.304l 1.12-288.224L 256.832,191.552L 257.344,702.688L 544,703.968l-64,64L 256,767.968 
			c-35.328,0-64-28.672-64-64l0-512 c0-35.328, 28.672-64, 64-64l 512,0 c 35.328,0, 64,28.672, 64,64L 829.632,417.76z"  />
<glyph unicode="&#x4f;" d="M 512,32C 282.272,32, 96,218.24, 96,448S 282.272,864, 512,864c 229.76,0, 416-186.24, 416-416S 741.76,32, 512,32z
	 M 512,128c 70.752,0, 135.968,23.264, 188.96,62.112L 254.144,636.896C 215.232,583.936, 192,518.752, 192,448C 192,271.296, 335.264,128, 512,128z M 512,768
	c-71.296,0-136.928-23.584-190.112-63.040l 447.072-447.104C 808.384,311.072, 832,376.672, 832,448C 832,624.736, 688.736,768, 512,768z"  />
<glyph unicode="&#x50;" d="M 848,96l-96,0 c-8.832,0-16,7.168-16,16s 7.168,16, 16,16L 832,128 l0,80 
	c0,8.832, 7.168,16, 16,16c 8.8,0, 16-7.168, 16-16l0-96 C 864,103.168, 856.8,96, 848,96z M 848,288c-8.832,0-16,7.168-16,16l0,96 
	c0,8.832, 7.168,16, 16,16c 8.8,0, 16-7.168, 16-16l0-96 C 864,295.168, 856.8,288, 848,288z M 848,480c-8.832,0-16,7.168-16,16l0,96 
	c0,8.832, 7.168,16, 16,16c 8.8,0, 16-7.168, 16-16l0-96 C 864,487.168, 856.8,480, 848,480z M 848,672C 839.168,672, 832,679.168, 832,688L 832,768 l-80,0 
	C 743.168,768, 736,775.168, 736,784S 743.168,800, 752,800l 96,0 C 856.8,800, 864,792.832, 864,784l0-96 C 864,679.168, 856.8,672, 848,672z M 469.312,286.304
	c-5.888-5.92-15.456-5.92-21.376,0l-4.736,4.736l0,0l-5.056,5.056l-22.272,22.272c-0.064,0.096-0.032,0.224-0.096,0.288L 313.76,421.44
	c-5.92,5.888-5.92,15.456,0,21.376l 32.064,32.096c 5.92,5.92, 15.488,5.92, 21.408,0l 91.52-92.192l 192.448,192.416
	c 5.888,5.92, 15.456,5.92, 21.376,0l 32.064-32.096c 5.952-5.92, 5.952-15.488,0-21.408L 469.312,286.304z M 656,768l-96,0 C 551.168,768, 544,775.168, 544,784
	S 551.168,800, 560,800l 96,0 C 664.8,800, 672,792.832, 672,784S 664.8,768, 656,768z M 464,768l-96,0 C 359.168,768, 352,775.168, 352,784S 359.168,800, 368,800l 96,0 
	C 472.8,800, 480,792.832, 480,784S 472.8,768, 464,768z M 272,96l-96,0 C 167.168,96, 160,103.168, 160,112l0,96 C 160,216.832, 167.168,224, 176,224
	C 184.832,224, 192,216.832, 192,208L 192,128 l 80,0 C 280.832,128, 288,120.832, 288,112S 280.832,96, 272,96z M 272,768L 192,768 l0-80 C 192,679.168, 184.832,672, 176,672
	C 167.168,672, 160,679.168, 160,688l0,96 C 160,792.832, 167.168,800, 176,800l 96,0 C 280.832,800, 288,792.832, 288,784S 280.832,768, 272,768z M 176,608C 184.832,608, 192,600.832, 192,592l0-96 
	C 192,487.168, 184.832,480, 176,480C 167.168,480, 160,487.168, 160,496l0,96 C 160,600.832, 167.168,608, 176,608z M 176,416C 184.832,416, 192,408.832, 192,400l0-96 
	C 192,295.168, 184.832,288, 176,288C 167.168,288, 160,295.168, 160,304l0,96 C 160,408.832, 167.168,416, 176,416z M 368,128l 96,0 c 8.8,0, 16-7.168, 16-16
	S 472.8,96, 464,96l-96,0 c-8.832,0-16,7.168-16,16S 359.168,128, 368,128z M 560,128l 96,0 c 8.8,0, 16-7.168, 16-16S 664.8,96, 656,96l-96,0 
	c-8.832,0-16,7.168-16,16S 551.168,128, 560,128z"  />
<glyph unicode="&#x51;" d="M 848,96l-96,0 c-8.832,0-16,7.168-16,16s 7.168,16, 16,16L 832,128 l0,80 
	c0,8.832, 7.168,16, 16,16c 8.8,0, 16-7.168, 16-16l0-96 C 864,103.168, 856.8,96, 848,96z M 848,288c-8.832,0-16,7.168-16,16l0,96 
	c0,8.832, 7.168,16, 16,16c 8.8,0, 16-7.168, 16-16l0-96 C 864,295.168, 856.8,288, 848,288z M 848,480c-8.832,0-16,7.168-16,16l0,96 
	c0,8.832, 7.168,16, 16,16c 8.8,0, 16-7.168, 16-16l0-96 C 864,487.168, 856.8,480, 848,480z M 848,672C 839.168,672, 832,679.168, 832,688L 832,768 l-80,0 
	C 743.168,768, 736,775.168, 736,784S 743.168,800, 752,800l 96,0 C 856.8,800, 864,792.832, 864,784l0-96 C 864,679.168, 856.8,672, 848,672z M 656,96l-96,0 
	c-8.832,0-16,7.168-16,16s 7.168,16, 16,16l 96,0 c 8.8,0, 16-7.168, 16-16S 664.8,96, 656,96z M 656,768l-96,0 
	C 551.168,768, 544,775.168, 544,784S 551.168,800, 560,800l 96,0 C 664.8,800, 672,792.832, 672,784S 664.8,768, 656,768z M 464,768l-96,0 C 359.168,768, 352,775.168, 352,784
	S 359.168,800, 368,800l 96,0 C 472.8,800, 480,792.832, 480,784S 472.8,768, 464,768z M 272,96l-96,0 C 167.168,96, 160,103.168, 160,112l0,96 C 160,216.832, 167.168,224, 176,224
	C 184.832,224, 192,216.832, 192,208L 192,128 l 80,0 C 280.832,128, 288,120.832, 288,112S 280.832,96, 272,96z M 272,768L 192,768 l0-80 C 192,679.168, 184.832,672, 176,672
	C 167.168,672, 160,679.168, 160,688l0,96 C 160,792.832, 167.168,800, 176,800l 96,0 C 280.832,800, 288,792.832, 288,784S 280.832,768, 272,768z M 176,608C 184.832,608, 192,600.832, 192,592l0-96 
	C 192,487.168, 184.832,480, 176,480C 167.168,480, 160,487.168, 160,496l0,96 C 160,600.832, 167.168,608, 176,608z M 176,416C 184.832,416, 192,408.832, 192,400l0-96 
	C 192,295.168, 184.832,288, 176,288C 167.168,288, 160,295.168, 160,304l0,96 C 160,408.832, 167.168,416, 176,416z M 663.552,328.864l-32.448-32.448
	c-5.952-5.984-15.616-5.984-21.6,0l-91.84,91.84l-91.84-91.84c-5.984-5.984-15.616-5.984-21.6,0l-32.416,32.448
	c-5.984,5.984-5.984,15.616,0,21.6l 91.872,91.84l-91.872,91.84c-5.984,5.952-5.984,15.616,0,21.6l 32.416,32.416
	c 5.984,5.984, 15.616,5.984, 21.6,0l 91.84-91.84l 91.84,91.84c 5.984,5.984, 15.648,5.984, 21.6,0l 32.448-32.416
	c 5.952-5.984, 5.952-15.648,0-21.6l-91.872-91.84l 91.872-91.84C 669.504,344.512, 669.504,334.848, 663.552,328.864z M 368,128l 96,0 
	c 8.8,0, 16-7.168, 16-16S 472.8,96, 464,96l-96,0 c-8.832,0-16,7.168-16,16S 359.168,128, 368,128z"  />
<glyph unicode="&#x52;" d="M 848,96l-96,0 c-8.832,0-16,7.168-16,16s 7.168,16, 16,16L 832,128 l0,80 
	c0,8.832, 7.168,16, 16,16c 8.8,0, 16-7.168, 16-16l0-96 C 864,103.168, 856.8,96, 848,96z M 848,288c-8.832,0-16,7.168-16,16l0,96 
	c0,8.832, 7.168,16, 16,16c 8.8,0, 16-7.168, 16-16l0-96 C 864,295.168, 856.8,288, 848,288z M 848,480c-8.832,0-16,7.168-16,16l0,96 
	c0,8.832, 7.168,16, 16,16c 8.8,0, 16-7.168, 16-16l0-96 C 864,487.168, 856.8,480, 848,480z M 848,672C 839.168,672, 832,679.168, 832,688L 832,768 l-80,0 
	C 743.168,768, 736,775.168, 736,784S 743.168,800, 752,800l 96,0 C 856.8,800, 864,792.832, 864,784l0-96 C 864,679.168, 856.8,672, 848,672z M 656,96l-96,0 
	c-8.832,0-16,7.168-16,16s 7.168,16, 16,16l 96,0 c 8.8,0, 16-7.168, 16-16S 664.8,96, 656,96z M 656,768l-96,0 
	C 551.168,768, 544,775.168, 544,784S 551.168,800, 560,800l 96,0 C 664.8,800, 672,792.832, 672,784S 664.8,768, 656,768z M 638.016,480c 17.664,0, 32-14.304, 32-32
	c0-17.664-14.336-32-32-32l-96,0 l0-96 c0-17.664-14.336-32-32-32c-17.696,0-32,14.336-32,32l0,96 l-96,0 c-17.664,0-32,14.336-32,32c0,17.696, 14.304,32, 32,32l 96,0 l0,96 
	c0,17.696, 14.304,32, 32,32c 17.664,0, 32-14.304, 32-32l0-96 L 638.016,480 z M 464,768l-96,0 C 359.168,768, 352,775.168, 352,784S 359.168,800, 368,800l 96,0 
	C 472.8,800, 480,792.832, 480,784S 472.8,768, 464,768z M 272,96l-96,0 C 167.168,96, 160,103.168, 160,112l0,96 C 160,216.832, 167.168,224, 176,224
	C 184.832,224, 192,216.832, 192,208L 192,128 l 80,0 C 280.832,128, 288,120.832, 288,112S 280.832,96, 272,96z M 272,768L 192,768 l0-80 C 192,679.168, 184.832,672, 176,672
	C 167.168,672, 160,679.168, 160,688l0,96 C 160,792.832, 167.168,800, 176,800l 96,0 C 280.832,800, 288,792.832, 288,784S 280.832,768, 272,768z M 176,608C 184.832,608, 192,600.832, 192,592l0-96 
	C 192,487.168, 184.832,480, 176,480C 167.168,480, 160,487.168, 160,496l0,96 C 160,600.832, 167.168,608, 176,608z M 176,416C 184.832,416, 192,408.832, 192,400l0-96 
	C 192,295.168, 184.832,288, 176,288C 167.168,288, 160,295.168, 160,304l0,96 C 160,408.832, 167.168,416, 176,416z M 368,128l 96,0 c 8.8,0, 16-7.168, 16-16
	S 472.8,96, 464,96l-96,0 c-8.832,0-16,7.168-16,16S 359.168,128, 368,128z"  />
<glyph unicode="&#x53;" d="M 272,800l-96,0 C 167.168,800, 160,792.832, 160,784l0-96 C 160,679.168, 167.168,672, 176,672C 184.832,672, 192,679.168, 192,688
			L 192,768 l 80,0 C 280.832,768, 288,775.168, 288,784S 280.832,800, 272,800z M 368,768l 96,0 C 472.8,768, 480,775.168, 480,784S 472.8,800, 464,800l-96,0 C 359.168,800, 352,792.832, 352,784
			S 359.168,768, 368,768z M 656,800l-96,0 C 551.168,800, 544,792.832, 544,784S 551.168,768, 560,768l 96,0 C 664.8,768, 672,775.168, 672,784S 664.8,800, 656,800z M 848,800l-96,0 
			C 743.168,800, 736,792.832, 736,784S 743.168,768, 752,768L 832,768 l0-80 C 832,679.168, 839.168,672, 848,672C 856.8,672, 864,679.168, 864,688l0,96 
			C 864,792.832, 856.8,800, 848,800z M 848,608c-8.832,0-16-7.168-16-16l0-96 c0-8.832, 7.168-16, 16-16c 8.8,0, 16,7.168, 16,16l0,96 
			C 864,600.832, 856.8,608, 848,608z M 848,416c-8.832,0-16-7.168-16-16l0-96 c0-8.832, 7.168-16, 16-16c 8.8,0, 16,7.168, 16,16l0,96 
			C 864,408.832, 856.8,416, 848,416z M 848,224c-8.832,0-16-7.168-16-16L 832,128 l-80,0 c-8.832,0-16-7.168-16-16s 7.168-16, 16-16l 96,0 
			c 8.8,0, 16,7.168, 16,16l0,96 C 864,216.832, 856.8,224, 848,224z M 656,128l-96,0 c-8.832,0-16-7.168-16-16s 7.168-16, 16-16l 96,0 
			c 8.8,0, 16,7.168, 16,16S 664.8,128, 656,128z M 464,128l-96,0 c-8.832,0-16-7.168-16-16s 7.168-16, 16-16l 96,0 
			c 8.8,0, 16,7.168, 16,16S 472.8,128, 464,128z M 272,128L 192,128 l0,80 C 192,216.832, 184.832,224, 176,224C 167.168,224, 160,216.832, 160,208l0-96 
			C 160,103.168, 167.168,96, 176,96l 96,0 C 280.832,96, 288,103.168, 288,112S 280.832,128, 272,128z M 176,288C 184.832,288, 192,295.168, 192,304l0,96 
			C 192,408.832, 184.832,416, 176,416C 167.168,416, 160,408.832, 160,400l0-96 C 160,295.168, 167.168,288, 176,288z M 176,480C 184.832,480, 192,487.168, 192,496l0,96 
			C 192,600.832, 184.832,608, 176,608C 167.168,608, 160,600.832, 160,592l0-96 C 160,487.168, 167.168,480, 176,480z M 382.016,416l 256,0 c 17.696,0, 32,14.336, 32,32
			c0,17.696-14.304,32-32,32l-256,0 c-17.696,0-32-14.304-32-32C 350.016,430.336, 364.32,416, 382.016,416z"  />
<glyph unicode="&#x54;" d="M 896,704l0-512 c0-35.328-28.672-64-64-64L 160,128 c0-35.328, 28.672-64, 64-64l 672,0 c 35.328,0, 64,28.672, 64,64L 960,640 
			C 960,675.328, 931.328,704, 896,704z M 864,224L 864,736 c0,35.328-28.672,64-64,64L 128,800 C 92.672,800, 64,771.328, 64,736l0-512 c0-35.328, 28.672-64, 64-64l 672,0 
			C 835.328,160, 864,188.672, 864,224z M 128,736l 672,0 l0-512 L 128,224 L 128,736 z M 500.064,406.048l-95.616,101.792l-95.648-163.328l-71.744,74.976l-77.728-164.128l 609.76,0 
			l-137.504,359.84L 500.064,406.048z M 256,512c 35.328,0, 64,28.672, 64,64s-28.672,64-64,64s-64-28.672-64-64S 220.672,512, 256,512z"  />
<glyph unicode="&#x55;" d="M 768,544.736c-123.712,0-224-101.056-224-225.76c0-71.040, 32.64-134.304, 83.488-175.712
	C 561.696,94.464, 512,63.648, 512,63.648S 64,340.512, 64,563.552c0,134.4, 82.656,268.768, 240,268.768c 144,0, 208-137.472, 208-137.472s 56,137.472, 208,137.472
	s 237.312-131.68, 237.312-268.768c0-30.656-8.704-62.176-22.912-93.824C 893.408,515.68, 834.112,544.736, 768,544.736z M 768,512.512
	c 106.016,0, 192-86.624, 192-193.504s-85.984-193.536-192-193.536c-106.048,0-192,86.656-192,193.536S 661.952,512.512, 768,512.512z M 672,286.752l 64,0 l0-64.512 l 64,0 l0,64.512 l 64,0 
	l0,64.512 l-64,0 l0,64.512 l-64,0 l0-64.512 l-64,0 L 672,286.752 z"  />
<glyph unicode="&#x56;" d="M 768,544.736c-123.712,0-224-101.056-224-225.76c0-71.040, 32.64-134.304, 83.488-175.712
	C 561.696,94.464, 512,63.648, 512,63.648S 64,340.512, 64,563.552c0,134.4, 82.656,268.768, 240,268.768c 144,0, 208-137.472, 208-137.472s 56,137.472, 208,137.472
	s 237.312-131.68, 237.312-268.768c0-30.656-8.704-62.176-22.912-93.824C 893.408,515.68, 834.112,544.736, 768,544.736z M 768,512.512
	c 106.016,0, 192-86.624, 192-193.504s-85.984-193.536-192-193.536c-106.048,0-192,86.656-192,193.536S 661.952,512.512, 768,512.512z M 672,286.752l 192,0 l0,64.512 l-192,0 L 672,286.752 z"  />
<glyph unicode="&#x20;" horiz-adv-x="512" />
</font>
</defs>
</svg>
